<svg width="27" height="27" viewBox="0 0 27 27" fill="none" xmlns="http://www.w3.org/2000/svg">
<rect width="27" height="27" rx="6" fill="#E5E7EA"/>
<g clip-path="url(#clip0_1_8546)">
<g clip-path="url(#clip1_1_8546)">
<path d="M17.3321 6.81605V5.58105C17.3321 5.25648 17.0623 4.9873 16.7368 4.9873C16.4114 4.9873 16.1416 5.25648 16.1416 5.58105V6.76855H10.9829V5.58105C10.9829 5.25648 10.713 4.9873 10.3876 4.9873C10.0622 4.9873 9.7924 5.25648 9.7924 5.58105V6.81605C7.64954 7.01397 6.60985 8.28855 6.45112 10.1806C6.43525 10.4102 6.62573 10.6002 6.84795 10.6002H20.2766C20.5067 10.6002 20.6971 10.4023 20.6733 10.1806C20.5147 8.28855 19.4749 7.01397 17.3321 6.81605Z" fill="#333548" fill-opacity="0.75"/>
<path opacity="0.4" d="M19.9129 11.793C20.3495 11.793 20.7067 12.1492 20.7067 12.5846V17.4613C20.7067 19.8363 19.5162 21.4197 16.7384 21.4197H10.3892C7.61137 21.4197 6.4209 19.8363 6.4209 17.4613V12.5846C6.4209 12.1492 6.77804 11.793 7.21455 11.793H19.9129Z" fill="#333548" fill-opacity="0.75"/>
<path d="M10.7858 15.8764C10.5795 15.8764 10.3731 15.7893 10.2223 15.6468C10.0795 15.4964 9.99219 15.2906 9.99219 15.0848C9.99219 14.8789 10.0795 14.6731 10.2223 14.5227C10.4446 14.301 10.7938 14.2297 11.0874 14.3564C11.1906 14.3959 11.2779 14.4514 11.3493 14.5227C11.4922 14.6731 11.5795 14.8789 11.5795 15.0848C11.5795 15.2906 11.4922 15.4964 11.3493 15.6468C11.1985 15.7893 10.9922 15.8764 10.7858 15.8764Z" fill="#333548" fill-opacity="0.75"/>
<path d="M13.5641 15.8764C13.3578 15.8764 13.1515 15.7893 13.0007 15.6468C12.8578 15.4964 12.7705 15.2906 12.7705 15.0848C12.7705 14.8789 12.8578 14.6731 13.0007 14.5227C13.0721 14.4514 13.1594 14.3959 13.2626 14.3564C13.5562 14.2297 13.9055 14.301 14.1276 14.5227C14.2705 14.6731 14.3578 14.8789 14.3578 15.0848C14.3578 15.2906 14.2705 15.4964 14.1276 15.6468C14.0879 15.6784 14.0483 15.7102 14.0086 15.7418C13.961 15.7734 13.9134 15.7973 13.8657 15.8131C13.8181 15.8368 13.7705 15.8527 13.7229 15.8606C13.6674 15.8685 13.6197 15.8764 13.5641 15.8764Z" fill="#333548" fill-opacity="0.75"/>
<path d="M16.3434 15.8773C16.1371 15.8773 15.9308 15.7902 15.78 15.6477C15.6371 15.4973 15.5498 15.2914 15.5498 15.0856C15.5498 14.8798 15.6371 14.674 15.78 14.5235C15.8593 14.4523 15.9387 14.3969 16.0419 14.3573C16.1848 14.2939 16.3434 14.2781 16.5022 14.3098C16.5498 14.3177 16.5974 14.3335 16.645 14.3573C16.6927 14.3731 16.7403 14.3969 16.7879 14.4285C16.8276 14.4603 16.8672 14.4919 16.9069 14.5235C17.0498 14.674 17.1371 14.8798 17.1371 15.0856C17.1371 15.2914 17.0498 15.4973 16.9069 15.6477C16.8672 15.6794 16.8276 15.711 16.7879 15.7427C16.7403 15.7744 16.6927 15.7981 16.645 15.814C16.5974 15.8378 16.5498 15.8535 16.5022 15.8615C16.4467 15.8694 16.391 15.8773 16.3434 15.8773Z" fill="#333548" fill-opacity="0.75"/>
<path d="M10.7858 18.6459C10.6827 18.6459 10.5795 18.6221 10.4843 18.5825C10.3811 18.543 10.3017 18.4875 10.2223 18.4163C10.0795 18.2659 9.99219 18.06 9.99219 17.8541C9.99219 17.6484 10.0795 17.4425 10.2223 17.2921C10.3017 17.2209 10.3811 17.1654 10.4843 17.1259C10.6271 17.0625 10.7858 17.0466 10.9446 17.0784C10.9922 17.0863 11.0398 17.1021 11.0874 17.1259C11.135 17.1416 11.1827 17.1655 11.2303 17.1971C11.27 17.2288 11.3096 17.2605 11.3493 17.2921C11.4922 17.4425 11.5795 17.6484 11.5795 17.8541C11.5795 18.06 11.4922 18.2659 11.3493 18.4163C11.3096 18.4479 11.27 18.4875 11.2303 18.5113C11.1827 18.5429 11.135 18.5667 11.0874 18.5825C11.0398 18.6063 10.9922 18.6221 10.9446 18.63C10.889 18.638 10.8414 18.6459 10.7858 18.6459Z" fill="#333548" fill-opacity="0.75"/>
<path d="M13.5641 18.6433C13.3578 18.6433 13.1515 18.5562 13.0007 18.4137C12.8578 18.2632 12.7705 18.0574 12.7705 17.8516C12.7705 17.6458 12.8578 17.4399 13.0007 17.2896C13.2943 16.9966 13.834 16.9966 14.1276 17.2896C14.2705 17.4399 14.3578 17.6458 14.3578 17.8516C14.3578 18.0574 14.2705 18.2632 14.1276 18.4137C13.9769 18.5562 13.7705 18.6433 13.5641 18.6433Z" fill="#333548" fill-opacity="0.75"/>
<path d="M16.3434 18.6433C16.1371 18.6433 15.9308 18.5562 15.78 18.4137C15.6371 18.2632 15.5498 18.0574 15.5498 17.8516C15.5498 17.6458 15.6371 17.4399 15.78 17.2896C16.0736 16.9966 16.6133 16.9966 16.9069 17.2896C17.0498 17.4399 17.1371 17.6458 17.1371 17.8516C17.1371 18.0574 17.0498 18.2632 16.9069 18.4137C16.7562 18.5562 16.5498 18.6433 16.3434 18.6433Z" fill="#333548" fill-opacity="0.75"/>
</g>
</g>
<defs>
<clipPath id="clip0_1_8546">
<rect width="20" height="19" fill="white" transform="translate(3.5 4)"/>
</clipPath>
<clipPath id="clip1_1_8546">
<rect width="20" height="19" fill="white" transform="translate(3.5 4)"/>
</clipPath>
</defs>
</svg>
