<svg width="27" height="27" viewBox="0 0 27 27" fill="none" xmlns="http://www.w3.org/2000/svg">
<rect width="27" height="27" rx="6" fill="#E5E7EA"/>
<g clip-path="url(#clip0_1_8516)">
<g clip-path="url(#clip1_1_8516)">
<path d="M21.4817 12.0807V6.41406C21.4817 5.16406 20.9484 4.66406 19.6234 4.66406H16.2567C14.9317 4.66406 14.3984 5.16406 14.3984 6.41406V12.0807C14.3984 13.3307 14.9317 13.8307 16.2567 13.8307H19.6234C20.9484 13.8307 21.4817 13.3307 21.4817 12.0807Z" fill="#333548" fill-opacity="0.75"/>
<path d="M12.7318 13.9141V19.5807C12.7318 20.8307 12.1984 21.3307 10.8734 21.3307H7.50678C6.18178 21.3307 5.64844 20.8307 5.64844 19.5807V13.9141C5.64844 12.6641 6.18178 12.1641 7.50678 12.1641H10.8734C12.1984 12.1641 12.7318 12.6641 12.7318 13.9141Z" fill="#333548" fill-opacity="0.75"/>
<path opacity="0.4" d="M21.4817 19.5833V17.25C21.4817 16 20.9484 15.5 19.6234 15.5H16.2567C14.9317 15.5 14.3984 16 14.3984 17.25V19.5833C14.3984 20.8333 14.9317 21.3333 16.2567 21.3333H19.6234C20.9484 21.3333 21.4817 20.8333 21.4817 19.5833Z" fill="#333548" fill-opacity="0.75"/>
<path opacity="0.4" d="M12.7318 8.7474V6.41406C12.7318 5.16406 12.1984 4.66406 10.8734 4.66406H7.50678C6.18178 4.66406 5.64844 5.16406 5.64844 6.41406V8.7474C5.64844 9.9974 6.18178 10.4974 7.50678 10.4974H10.8734C12.1984 10.4974 12.7318 9.9974 12.7318 8.7474Z" fill="#333548" fill-opacity="0.75"/>
</g>
</g>
<defs>
<clipPath id="clip0_1_8516">
<rect width="21" height="20" fill="white" transform="translate(3 3)"/>
</clipPath>
<clipPath id="clip1_1_8516">
<rect width="21" height="20" fill="white" transform="translate(3 3)"/>
</clipPath>
</defs>
</svg>
