<svg width="27" height="27" viewBox="0 0 27 27" fill="none" xmlns="http://www.w3.org/2000/svg">
<rect width="27" height="27" rx="6" fill="#E5E7EA"/>
<g clip-path="url(#clip0_1_8526)">
<path d="M13.553 5.1665C11.4569 5.1665 9.75293 6.9415 9.75293 9.12484C9.75293 11.2665 11.3609 12.9998 13.457 13.0748C13.521 13.0665 13.585 13.0665 13.633 13.0748C13.649 13.0748 13.657 13.0748 13.673 13.0748C13.681 13.0748 13.681 13.0748 13.689 13.0748C15.737 12.9998 17.345 11.2665 17.353 9.12484C17.353 6.9415 15.649 5.1665 13.553 5.1665Z" fill="#333548" fill-opacity="0.75"/>
<path opacity="0.4" d="M17.6179 15.2938C15.3859 13.7438 11.7459 13.7438 9.49788 15.2938C8.48188 16.0022 7.92188 16.9605 7.92188 17.9855C7.92188 19.0105 8.48188 19.9605 9.48988 20.6605C10.6099 21.4438 12.0819 21.8355 13.5539 21.8355C15.0259 21.8355 16.4979 21.4438 17.6179 20.6605C18.6259 19.9522 19.1859 19.0022 19.1859 17.9688C19.1779 16.9438 18.6259 15.9938 17.6179 15.2938Z" fill="#333548" fill-opacity="0.75"/>
<path d="M15.1536 17.3605H14.1536V16.3188C14.1536 15.9772 13.8816 15.6938 13.5536 15.6938C13.2256 15.6938 12.9536 15.9772 12.9536 16.3188V17.3605H11.9536C11.6256 17.3605 11.3535 17.6438 11.3535 17.9855C11.3535 18.3272 11.6256 18.6105 11.9536 18.6105H12.9536V19.6522C12.9536 19.9938 13.2256 20.2772 13.5536 20.2772C13.8816 20.2772 14.1536 19.9938 14.1536 19.6522V18.6105H15.1536C15.4816 18.6105 15.7536 18.3272 15.7536 17.9855C15.7536 17.6438 15.4816 17.3605 15.1536 17.3605Z" fill="#333548" fill-opacity="0.75"/>
</g>
<defs>
<clipPath id="clip0_1_8526">
<rect width="20" height="20" fill="white" transform="translate(3.5 3.5)"/>
</clipPath>
</defs>
</svg>
