<svg width="27" height="27" viewBox="0 0 27 27" fill="none" xmlns="http://www.w3.org/2000/svg">
<rect width="27" height="27" rx="6" fill="#E5E7EA"/>
<g clip-path="url(#clip0_1_8560)">
<g clip-path="url(#clip1_1_8560)">
<path opacity="0.4" d="M16.993 5.16406H10.0096C6.97631 5.16406 5.16797 6.9724 5.16797 10.0057V16.9807C5.16797 20.0224 6.97631 21.8307 10.0096 21.8307H16.9847C20.018 21.8307 21.8263 20.0224 21.8263 16.9891V10.0057C21.8347 6.9724 20.0263 5.16406 16.993 5.16406Z" fill="#474856" fill-opacity="0.75"/>
<path opacity="0.97" d="M13.4979 12.0896C14.1009 12.0896 14.5896 11.6008 14.5896 10.9979C14.5896 10.395 14.1009 9.90625 13.4979 9.90625C12.895 9.90625 12.4062 10.395 12.4062 10.9979C12.4062 11.6008 12.895 12.0896 13.4979 12.0896Z" fill="#474856" fill-opacity="0.75"/>
<path opacity="0.97" d="M10.4237 14.9062C9.82369 14.9062 9.33203 15.3979 9.33203 15.9979C9.33203 16.5979 9.82369 17.0896 10.4237 17.0896C11.0237 17.0896 11.5154 16.5979 11.5154 15.9979C11.5154 15.3979 11.0237 14.9062 10.4237 14.9062Z" fill="#474856" fill-opacity="0.75"/>
<path opacity="0.97" d="M16.576 14.9062C15.976 14.9062 15.4844 15.3979 15.4844 15.9979C15.4844 16.5979 15.976 17.0896 16.576 17.0896C17.176 17.0896 17.6677 16.5979 17.6677 15.9979C17.6677 15.3979 17.176 14.9062 16.576 14.9062Z" fill="#474856" fill-opacity="0.75"/>
</g>
</g>
<defs>
<clipPath id="clip0_1_8560">
<rect width="20" height="20" fill="white" transform="translate(3.5 3.5)"/>
</clipPath>
<clipPath id="clip1_1_8560">
<rect width="20" height="20" fill="white" transform="translate(3.5 3.5)"/>
</clipPath>
</defs>
</svg>
