<svg width="27" height="27" viewBox="0 0 27 27" fill="none" xmlns="http://www.w3.org/2000/svg">
<rect width="27" height="27" rx="6" fill="#E5E7EA"/>
<g clip-path="url(#clip0_1_8534)">
<g clip-path="url(#clip1_1_8534)">
<path opacity="0.4" d="M17.9594 10.1514C17.9038 10.1435 17.8481 10.1435 17.7924 10.1514C16.5594 10.1118 15.5811 9.10641 15.5811 7.87141C15.5811 6.61266 16.6071 5.5835 17.8799 5.5835C19.1447 5.5835 20.1788 6.60475 20.1788 7.87141C20.1708 9.10641 19.1924 10.1118 17.9594 10.1514Z" fill="#474856" fill-opacity="0.75"/>
<path opacity="0.4" d="M20.5508 15.6388C19.6599 16.2326 18.411 16.4542 17.2576 16.3038C17.5599 15.6546 17.719 14.9342 17.7269 14.1742C17.7269 13.3826 17.5519 12.6305 17.2178 11.9734C18.395 11.815 19.644 12.0367 20.5428 12.6305C21.7996 13.4538 21.7996 14.8076 20.5508 15.6388Z" fill="#474856" fill-opacity="0.75"/>
<path opacity="0.4" d="M9.13924 10.1514C9.19492 10.1435 9.2506 10.1435 9.30629 10.1514C10.5392 10.1118 11.5176 9.10641 11.5176 7.87141C11.5176 6.61266 10.4915 5.5835 9.21879 5.5835C7.95401 5.5835 6.91992 6.60475 6.91992 7.87141C6.92788 9.10641 7.90629 10.1118 9.13924 10.1514Z" fill="#474856" fill-opacity="0.75"/>
<path opacity="0.4" d="M9.22583 14.1743C9.22583 14.9423 9.39288 15.6706 9.69515 16.3277C8.57356 16.4464 7.40424 16.2089 6.54515 15.6468C5.28833 14.8156 5.28833 13.4618 6.54515 12.6306C7.39629 12.0606 8.59743 11.831 9.72697 11.9577C9.40083 12.6227 9.22583 13.3748 9.22583 14.1743Z" fill="#474856" fill-opacity="0.75"/>
<path d="M13.6552 16.5637C13.5916 16.5558 13.52 16.5558 13.4484 16.5637C11.9847 16.5162 10.8154 15.3208 10.8154 13.8483C10.8154 12.3442 12.0325 11.125 13.5518 11.125C15.0632 11.125 16.2882 12.3442 16.2882 13.8483C16.2882 15.3208 15.1268 16.5162 13.6552 16.5637Z" fill="#474856" fill-opacity="0.75"/>
<path d="M11.0698 18.2048C9.86866 19.0044 9.86866 20.3185 11.0698 21.1102C12.438 22.0207 14.6811 22.0207 16.0493 21.1102C17.2505 20.3107 17.2505 18.9965 16.0493 18.2048C14.6891 17.2944 12.4459 17.2944 11.0698 18.2048Z" fill="#474856" fill-opacity="0.75"/>
</g>
</g>
<defs>
<clipPath id="clip0_1_8534">
<rect width="20" height="19" fill="white" transform="translate(3.5 4)"/>
</clipPath>
<clipPath id="clip1_1_8534">
<rect width="20" height="19" fill="white" transform="translate(3.5 4)"/>
</clipPath>
</defs>
</svg>
